<?xml version="1.0" standalone="no"?><!DOCTYPE svg PUBLIC "-//W3C//DTD SVG 1.1//EN" "http://www.w3.org/Graphics/SVG/1.1/DTD/svg11.dtd"><svg t="1543553939247" class="icon" style="" viewBox="0 0 1094 1024" version="1.1" xmlns="http://www.w3.org/2000/svg" p-id="5566" xmlns:xlink="http://www.w3.org/1999/xlink" width="213.671875" height="200"><defs><style type="text/css"></style></defs><path d="M355.051443 788.958595h-256.963614l-74.278544-92.346299 12.045169-582.183187 82.308658-86.323714h881.304893l70.263488 78.293601-18.067754 624.34128-72.271016 58.218319h-256.963614l-175.377666 198.745295-192-198.745295z" fill="#FFDA44" p-id="5567"></path><path d="M391.186951 776.913425h313.294856l-159.437892 180.677541-153.856964-180.677541z" fill="#FF5151" p-id="5568"></path><path d="M273.525721 354.670013c-37.761606 0-68.376412 31.759097-68.376411 70.925972s30.614806 70.925972 68.376411 70.925972 68.376412-31.759097 68.376412-70.925972-30.614806-70.925972-68.376412-70.925972z m273.525722 0c-37.761606 0-68.376412 31.759097-68.376412 70.925972s30.614806 70.925972 68.376412 70.925972 68.376412-31.759097 68.376411-70.925972-30.614806-70.925972-68.376411-70.925972z m273.525721 0c-37.761606 0-68.376412 31.759097-68.376411 70.925972s30.614806 70.925972 68.376411 70.925972 68.476788-31.739021 68.476788-70.925972-30.614806-70.925972-68.376411-70.925972zM957.309912 0H136.752823C61.229611 0 0 63.518193 0 141.87202v531.994981c0 78.293601 62.614806 150.564617 139.864492 150.564618h208.421581c36.336261 38.705144 186.700125 194.368883 186.700125 194.368883a16.622334 16.622334 0 0 0 24.090339 0s110.092848-124.80803 181.801757-194.368883h213.3601c77.269762 0 139.864492-72.271016 139.864492-150.564618v-531.994981C1094.102886 63.578419 1032.873275 0 957.329987 0z m68.376412 673.867001c0 39.166876-32.863237 80.301129-71.488081 80.301129H744.51192c-25.415307 0-48.180678 26.097867-48.180678 26.097867l-147.272271 152.752824-147.252196-152.752824s-28.105395-26.097867-52.095357-26.097867H139.864492c-38.624843 0-71.48808-41.094103-71.48808-80.301129v-531.994981c0-39.186951 30.614806-70.946048 68.376411-70.946048h820.557089c37.761606 0 68.376412 31.759097 68.376412 70.946048v531.994981z" fill="#515151" p-id="5569"></path></svg>